:SAMPLES-PER-SECOND 30
:FULLY-SPECIFIED
:DEGREES
362
root  -17.1971 29.3677 -56.2953 17.0068 -28.3984 0.085907
RightUpLeg  -32.8052 -14.5721 13.9602
RightLeg  53.4466 -4.53051 -5.38843
RightFoot  -32.6577 1.10277 4.14056
RightToes  -6.78096 -0.0206268 -0.0630143
Spine  14.7617 1.63953 -4.31746
Spine1  22.283 4.7621 -7.17613
HEad  20.9371 -4.19946 13.8616
LeftShoulder1  0 -2.42657e-020 -4.95415e-022
LeftArm  -37.6442 -38.5842 -72.7577
LeftForeArm  54.7965 -33.3566 -6.62523
LeftHand  -1.5136 -13.267 12.5967
RightShoulder  0 2.42657e-020 1.07489e-018
RightArm  -38.773 41.3217 87.7039
RightForeArm  51.8529 11.9691 2.11271
RightHand  -1.72397 23.7414 -7.82028
LeftUpLeg  -55.3235 -21.2461 6.93036
LeftLeg  87.5039 0.230156 2.06176
LeftFoot  -13.6295 -0.0107936 -0.0903294
LeftToes  4.29617 2.37847e-007 4.89147e-008
363
root  -19.9059 30.0454 -54.4581 16.679 -28.1062 1.05273
RightUpLeg  -23.6797 -16.5254 13.7427
RightLeg  45.4291 -3.70039 -3.32906
RightFoot  -27.6467 0.56294 2.66519
RightToes  -15.3123 -0.0568969 -0.138105
Spine  14.3031 1.50189 -5.80014
Spine1  21.4452 4.3654 -7.58492
HEad  26.776 -5.72878 16.3442
LeftShoulder1  0 -2.42657e-020 -4.95415e-022
LeftArm  -33.771 -44.6785 -71.9879
LeftForeArm  60.9287 -18.4685 -3.32304
LeftHand  0.448847 -16.6071 -3.44603
RightShoulder  0 2.42657e-020 1.07489e-018
RightArm  -45.9528 41.9933 94.4147
RightForeArm  52.6592 7.89945 1.37434
RightHand  -1.79981 21.8168 -8.95161
LeftUpLeg  -58.1494 -20.7283 3.58982
LeftLeg  75.2174 0.419829 1.23638
LeftFoot  -14.2684 0.0527564 0.421491
LeftToes  3.89987 2.37847e-007 4.89147e-008
364
root  -22.5921 30.7098 -52.5543 16.2729 -28.4681 2.0332
RightUpLeg  -16.522 -16.6793 12.7986
RightLeg  40.7371 -2.58415 -1.97317
RightFoot  -17.1887 0.112483 1.12184
RightToes  -31.9493 -0.157572 -0.265283
Spine  13.1458 1.83017 -6.85373
Spine1  19.6996 5.76202 -9.25567
HEad  30.1276 -6.23157 18.4897
LeftShoulder1  0 -2.42657e-020 -4.95415e-022
LeftArm  -26.2617 -49.1562 -74.6609
LeftForeArm  86.2726 -1.10288 -0.0905498
LeftHand  2.27025 -16.0426 -16.3842
RightShoulder  0 2.42657e-020 1.07489e-018
RightArm  -46.5795 39.598 99.308
RightForeArm  51.6709 6.56469 1.1382
RightHand  -1.52411 20.6781 -7.97239
LeftUpLeg  -57.0246 -18.0371 -1.65939
LeftLeg  58.9201 1.13933 1.63095
LeftFoot  -13.3791 0.0582653 0.496758
LeftToes  1.6645 2.37847e-007 4.89147e-008
365
root  -25.3436 31.2861 -50.6591 17.1536 -29.937 1.31567
RightUpLeg  -10.4498 -17.2094 12.2383
RightLeg  36.5641 1.63467 1.03951
RightFoot  -4.13623 -0.0117734 0.051526
RightToes  -49.4493 -0.298019 -0.362049
Spine  11.2884 2.98735 -6.60761
Spine1  16.6622 9.32714 -11.1775
HEad  31.676 -4.53913 17.1612
LeftShoulder1  0 -2.42657e-020 -4.95415e-022
LeftArm  -7.92385 -41.1075 -76.7975
LeftForeArm  86.5726 -2.00212 -0.247041
LeftHand  1.36554 -9.63581 -16.4767
RightShoulder  0 2.42657e-020 1.07489e-018
RightArm  -48.0159 36.0017 101.8
RightForeArm  52.1204 6.64154 1.15106
RightHand  -1.07417 20.0733 -5.69554
LeftUpLeg  -54.2134 -12.2093 -7.20355
LeftLeg  42.1688 -0.304339 -0.247708
LeftFoot  -12.1392 0.110412 1.03833
LeftToes  -4.7729 2.37847e-007 4.89147e-008
366
root  -28.1496 31.5579 -48.6884 18.5612 -31.866 -1.75058
RightUpLeg  -3.9818 -14.6623 12.4427
RightLeg  33.3394 8.69878 4.91146
RightFoot  8.02226 -0.0973868 1.76615
RightToes  -58.0531 -0.376259 -0.392891
Spine  9.62174 4.33881 -5.5938
Spine1  14.231 12.562 -11.2896
HEad  32.547 -2.34277 14.4818
LeftShoulder1  0 -2.42657e-020 -4.95415e-022
LeftArm  -25.0971 -30.6804 -77.1638
LeftForeArm  86.8673 -6.46433 -1.03181
LeftHand  0.89114 -9.51681 -11.0526
RightShoulder  0 2.42657e-020 1.07489e-018
RightArm  -51.6502 33.0111 102.377
RightForeArm  51.0994 5.97019 1.03371
RightHand  -1.13002 19.3367 -6.25781
LeftUpLeg  -51.1859 -4.21867 -12.3522
LeftLeg  31.521 -4.86731 -2.56961
LeftFoot  -11.2462 0.19019 1.9315
LeftToes  -11.1338 2.37847e-007 4.89147e-008
367
root  -30.8226 31.4226 -46.5069 18.2703 -34.4714 -3.76776
RightUpLeg  1.08522 -9.81729 10.7337
RightLeg  35.1195 16.7938 10.0108
RightFoot  16.1965 -0.838633 6.26604
RightToes  -61.1141 -0.405089 -0.400985
Spine  8.61302 5.90596 -5.11528
Spine1  12.7473 16.0664 -11.8833
HEad  33.8379 -1.43061 13.2099
LeftShoulder1  0 -2.42657e-020 -4.95415e-022
LeftArm  -24.5458 -21.8936 -76.5176
LeftForeArm  76.0289 -9.98904 -1.69479
LeftHand  1.71782 -14.611 -13.7161
RightShoulder  0 2.42657e-020 1.07489e-018
RightArm  -56.3246 29.8365 101.32
RightForeArm  49.9752 6.33813 1.1009
RightHand  -1.11005 19.538 -6.07265
LeftUpLeg  -47.4216 0.568474 -15.8688
LeftLeg  27.7112 -6.51372 -2.89875
LeftFoot  -11.252 0.210574 2.13736
LeftToes  -4.14513 2.37847e-007 4.89147e-008
368
root  -33.2556 30.9073 -44.3149 16.8397 -36.3213 -4.13968
RightUpLeg  2.72674 -5.48115 7.73445
RightLeg  41.7322 18.1534 13.6936
RightFoot  11.5982 -0.522837 5.52183
RightToes  -61.1141 -0.405089 -0.400985
Spine  8.39076 6.84718 -4.62823
Spine1  12.4861 18.2348 -12.1322
HEad  34.545 -0.814955 11.7712
LeftShoulder1  0 -2.42657e-020 -4.95415e-022
LeftArm  -20.372 -13.0947 -75.1354
LeftForeArm  60.1791 -14.5835 -2.58049
LeftHand  2.14607 -14.4856 -17.1456
RightShoulder  0 2.42657e-020 1.07489e-018
RightArm  -56.0406 27.1296 99.0964
RightForeArm  45.2211 8.73858 1.53693
RightHand  -1.08152 20.9933 -5.46403
LeftUpLeg  -45.3723 -7.05454 -12.7868
LeftLeg  33.4855 -5.57232 -3.18769
LeftFoot  -9.02416 0.136544 1.73015
LeftToes  25.3728 2.37847e-007 4.89147e-008
369
root  -35.5883 30.1578 -42.2229 14.324 -35.99 -4.9473
RightUpLeg  2.81497 -4.96332 4.82873
RightLeg  49.1534 11.2407 11.1739
RightFoot  7.82146 -0.183043 3.05437
RightToes  -59.9091 -0.393688 -0.397983
Spine  9.80199 7.06234 -3.05944
Spine1  15.8106 18.8947 -10.0674
HEad  31.6842 0.200715 8.51336
LeftShoulder1  0 -2.42657e-020 -4.95415e-022
LeftArm  -21.7721 -8.11882 -76.0641
LeftForeArm  61.3804 -17.5802 -3.14899
LeftHand  1.73788 -14.2313 -14.2314
RightShoulder  0 2.42657e-020 1.07489e-018
RightArm  -49.2539 26.2281 93.9894
RightForeArm  37.7878 13.8796 2.48651
RightHand  -0.820753 21.9406 -3.86337
LeftUpLeg  -47.2845 -16.8796 -8.43566
LeftLeg  49.9518 0.587307 0.606468
LeftFoot  -11.1647 0.057933 0.592714
LeftToes  18.2395 2.37847e-007 4.89147e-008
370
root  -37.9013 29.4844 -39.9269 12.1988 -36.9607 -5.00253
RightUpLeg  0.0366884 -4.2453 0.415991
RightLeg  56.8189 2.73268 3.56691
RightFoot  2.78574 -0.0174158 1.09352
RightToes  -50.6038 -0.308235 -0.366865
Spine  10.3808 7.61787 -1.82933
Spine1  17.7558 19.7337 -8.07121
HEad  29.988 0.129369 6.57109
LeftShoulder1  0 -2.42657e-020 -4.95415e-022
LeftArm  -23.5871 -4.30725 -77.484
LeftForeArm  66.6425 -18.1389 -3.24483
LeftHand  1.21245 -15.3525 -9.35154
RightShoulder  0 2.42657e-020 1.07489e-018
RightArm  -42.0718 23.2625 86.7252
RightForeArm  29.2852 20.02 3.67735
RightHand  -0.170692 23.0183 -0.468394
LeftUpLeg  -42.753 -14.9741 -10.6531
LeftLeg  56.5277 0.992591 1.30028
LeftFoot  -15.744 0.0262641 0.189947
LeftToes  25.2733 2.37847e-007 4.89147e-008
371
root  -39.972 29.1771 -37.8359 12.0135 -37.2713 -4.86896
RightUpLeg  -7.70606 -4.01671 -2.86436
RightLeg  64.8448 -3.69738 -6.7949
RightFoot  -4.86972 0.044087 1.41453
RightToes  -32.909 -0.164457 -0.271667
Spine  9.22133 6.98433 -1.18694
Spine1  16.2126 17.7657 -6.73819
HEad  31.8315 2.04654 5.26385
LeftShoulder1  0 -2.42657e-020 -4.95415e-022
LeftArm  -25.4488 2.45446 -77.1741
LeftForeArm  63.6525 -22.6431 -4.15664
LeftHand  1.5371 -15.4369 -11.68
RightShoulder  0 2.42657e-020 1.07489e-018
RightArm  -34.6397 18.7286 82.2182
RightForeArm  23.097 26.1813 4.9691
RightHand  0.220099 23.6063 1.42362
LeftUpLeg  -38.4123 -15.164 -11.6486
LeftLeg  59.5781 1.22405 1.79657
LeftFoot  -22.7591 -0.102999 -0.511765
LeftToes  25.4898 2.37847e-007 4.89147e-008
372
root  -41.9248 29.4764 -35.7986 12.2843 -35.7934 -4.39032
RightUpLeg  -17.6582 -4.13953 -4.45458
RightLeg  69.8561 -5.36805 -12.1125
RightFoot  -12.7681 0.351874 3.52189
RightToes  -13.0958 -0.0464042 -0.119128
Spine  8.18937 5.46047 -0.811457
Spine1  14.7451 13.8918 -5.48574
HEad  31.4056 4.4839 3.88537
LeftShoulder1  0 -2.42657e-020 -4.95415e-022
LeftArm  -23.6034 7.40948 -76.0231
LeftForeArm  59.7317 -25.3696 -4.74339
LeftHand  1.64476 -14.8941 -12.9095
RightShoulder  0 2.42657e-020 1.07489e-018
RightArm  -30.5784 14.6823 79.277
RightForeArm  15.689 33.735 6.7604
RightHand  0.998276 24.4541 4.97557
LeftUpLeg  -32.1784 -18.4239 -12.2623
LeftLeg  57.4225 2.15918 2.93089
LeftFoot  -26.3054 -0.346582 -1.4831
LeftToes  26.1023 2.37847e-007 4.89147e-008
373
root  -43.9985 30.3068 -33.599 10.9182 -35.4356 -3.86334
RightUpLeg  -24.7293 -3.41541 -5.86612
RightLeg  67.5941 -4.55835 -9.35352
RightFoot  -11.7508 0.2274 2.58721
RightToes  -23.2195 -0.100124 -0.20219
Spine  8.06711 4.46507 -0.491459
Spine1  14.8678 11.3368 -4.54152
HEad  31.2207 7.3834 1.35111
LeftShoulder1  0 -2.42657e-020 -4.95415e-022
LeftArm  -19.7429 9.91545 -75.3205
LeftForeArm  59.1294 -26.164 -4.91803
LeftHand  1.40977 -14.6908 -11.2789
RightShoulder  0 2.42657e-020 1.07489e-018
RightArm  -27.8625 12.4814 76.5875
RightForeArm  12.9985 39.8503 8.46556
RightHand  1.30347 24.9159 6.26667
LeftUpLeg  -21.66 -16.3868 -13.1277
LeftLeg  49.6892 0.959734 0.986578
LeftFoot  -26.6295 -0.139662 -0.590136
LeftToes  26.2656 2.37847e-007 4.89147e-008
374
root  -46.148 31.3727 -31.595 12.7997 -35.2241 -6.14719
RightUpLeg  -30.5808 -4.04432 -4.24295
RightLeg  58.09 -3.33222 -4.71849
RightFoot  -10.581 0.0857038 1.30314
RightToes  -29.0349 -0.137332 -0.245203
Spine  7.23679 3.42046 0.28171
Spine1  13.7694 8.2432 -1.99977
HEad  31.3847 11.0183 -1.34804
LeftShoulder1  0 -2.42657e-020 -4.95415e-022
LeftArm  -15.4969 13.0707 -75.2614
LeftForeArm  56.8835 -28.5958 -5.46934
LeftHand  1.41433 -14.7734 -11.2525
RightShoulder  0 2.42657e-020 1.07489e-018
RightArm  -26.9152 8.52555 75.213
RightForeArm  14.6194 50.5929 12.4185
RightHand  1.31838 25.3942 6.21821
LeftUpLeg  -12.8418 -14.0956 -10.5246
LeftLeg  40.6201 -0.26746 -0.206541
LeftFoot  -23.5531 0.0277377 0.133036
LeftToes  21.855 2.37847e-007 4.89147e-008
